<svg xmlns="http://www.w3.org/2000/svg" viewBox="0 0 1000 1000">
  <path d="M500 226.5c-151.1 0-273.5 122.4-273.5 273.5S348.9 773.5 500 773.5 773.5 651.1 773.5 500 651.1 226.5 500 226.5zm0 0" fill="#e0b76e"/>
  <path d="M500 226.5c-151.1 0-273.5 122.4-273.5 273.5S348.9 773.5 500 773.5 773.5 651.1 773.5 500 651.1 226.5 500 226.5zm0 0" fill="none" stroke="#fff" stroke-width="10"/>
  <path d="M500 350c-82.8 0-150 67.2-150 150s67.2 150 150 150 150-67.2 150-150-67.2-150-150-150zm0 0" fill="#fff"/>
  <path d="M500 350c-82.8 0-150 67.2-150 150s67.2 150 150 150 150-67.2 150-150-67.2-150-150-150zm0 0" fill="none" stroke="#e0b76e" stroke-width="10"/>
  <path d="M500 350c0 82.8-67.2 150-150 150S200 432.8 200 350s67.2-150 150-150 150 67.2 150 150zm0 0" fill="#e0b76e"/>
  <path d="M500 350c0 82.8-67.2 150-150 150S200 432.8 200 350s67.2-150 150-150 150 67.2 150 150zm0 0" fill="none" stroke="#fff" stroke-width="10"/>
  <path d="M500 650c0-82.8 67.2-150 150-150s150 67.2 150 150-67.2 150-150 150-150-67.2-150-150zm0 0" fill="#e0b76e"/>
  <path d="M500 650c0-82.8 67.2-150 150-150s150 67.2 150 150-67.2 150-150 150-150-67.2-150-150zm0 0" fill="none" stroke="#fff" stroke-width="10"/>
  <path d="M500 650c-82.8 0-150-67.2-150-150s67.2-150 150-150 150 67.2 150 150-67.2 150-150 150zm0 0" fill="#e0b76e"/>
  <path d="M500 650c-82.8 0-150-67.2-150-150s67.2-150 150-150 150 67.2 150 150-67.2 150-150 150zm0 0" fill="none" stroke="#fff" stroke-width="10"/>
</svg>